<?xml version="1.0" encoding="UTF-8"?><svg xmlns:svg="http://www.w3.org/2000/svg" xmlns="http://www.w3.org/2000/svg" xmlns:xlink="http://www.w3.org/1999/xlink" version="1.0" width="681" height="176" viewBox="0 0 681 176" ><text x="60" y="8" font-family="Courier New, monospace" font-size="11" dominant-baseline="middle" text-anchor="middle" >0</text><text x="100" y="8" font-family="Courier New, monospace" font-size="11" dominant-baseline="middle" text-anchor="middle" >1</text><text x="140" y="8" font-family="Courier New, monospace" font-size="11" dominant-baseline="middle" text-anchor="middle" >2</text><text x="180" y="8" font-family="Courier New, monospace" font-size="11" dominant-baseline="middle" text-anchor="middle" >3</text><text x="220" y="8" font-family="Courier New, monospace" font-size="11" dominant-baseline="middle" text-anchor="middle" >4</text><text x="260" y="8" font-family="Courier New, monospace" font-size="11" dominant-baseline="middle" text-anchor="middle" >5</text><text x="300" y="8" font-family="Courier New, monospace" font-size="11" dominant-baseline="middle" text-anchor="middle" >6</text><text x="340" y="8" font-family="Courier New, monospace" font-size="11" dominant-baseline="middle" text-anchor="middle" >7</text><text x="380" y="8" font-family="Courier New, monospace" font-size="11" dominant-baseline="middle" text-anchor="middle" >8</text><text x="420" y="8" font-family="Courier New, monospace" font-size="11" dominant-baseline="middle" text-anchor="middle" >9</text><text x="460" y="8" font-family="Courier New, monospace" font-size="11" dominant-baseline="middle" text-anchor="middle" >10</text><text x="500" y="8" font-family="Courier New, monospace" font-size="11" dominant-baseline="middle" text-anchor="middle" >11</text><text x="540" y="8" font-family="Courier New, monospace" font-size="11" dominant-baseline="middle" text-anchor="middle" >12</text><text x="580" y="8" font-family="Courier New, monospace" font-size="11" dominant-baseline="middle" text-anchor="middle" >13</text><text x="620" y="8" font-family="Courier New, monospace" font-size="11" dominant-baseline="middle" text-anchor="middle" >14</text><text x="660" y="8" font-family="Courier New, monospace" font-size="11" dominant-baseline="middle" text-anchor="middle" >15</text><rect x="40" y="15" height="30" width="80" fill="#a0ffa0" /><line x1="40" y1="15" x2="120" y2="15" stroke="#000000" stroke-width="1" /><line x1="40" y1="45" x2="120" y2="45" stroke="#000000" stroke-width="1" /><line x1="120" y1="15" x2="120" y2="45" stroke="#000000" stroke-width="1" /><line x1="40" y1="15" x2="40" y2="45" stroke="#000000" stroke-width="1" /><text font-size="18" font-family="Palatino, Georgia, Times New Roman, serif" x="80" y="31" text-anchor="middle" dominant-baseline="middle" >units</text><rect x="120" y="15" height="30" width="280" fill="#a0fafa" /><line x1="120" y1="15" x2="400" y2="15" stroke="#000000" stroke-width="1" /><line x1="120" y1="45" x2="400" y2="45" stroke="#000000" stroke-width="1" /><line x1="400" y1="15" x2="400" y2="45" stroke="#000000" stroke-width="1" /><line x1="120" y1="15" x2="120" y2="45" stroke="#000000" stroke-width="1" /><text font-size="18" font-family="Palatino, Georgia, Times New Roman, serif" x="260" y="31" text-anchor="middle" dominant-baseline="middle" >yield</text><rect x="400" y="15" height="30" width="280" fill="#a0fafa" /><line x1="400" y1="15" x2="680" y2="15" stroke="#000000" stroke-width="1" /><line x1="400" y1="45" x2="680" y2="45" stroke="#000000" stroke-width="1" /><line x1="680" y1="15" x2="680" y2="45" stroke="#000000" stroke-width="1" /><line x1="400" y1="15" x2="400" y2="45" stroke="#000000" stroke-width="1" /><text font-size="18" font-family="Palatino, Georgia, Times New Roman, serif" x="540" y="31" text-anchor="middle" dominant-baseline="middle" >name_len</text><text font-size="11" font-family="Courier New, monospace" font-style="normal" dominant-baseline="middle" x="35" y="30" text-anchor="end" >00</text><text font-size="11" font-family="Courier New, monospace" font-style="normal" dominant-baseline="middle" x="35" y="60" text-anchor="end" >10</text><rect x="40" y="45" height="30" width="320" fill="#e4b5f7" /><line x1="40" y1="45" x2="360" y2="45" stroke="#000000" stroke-width="1" /><line x1="40" y1="75" x2="360" y2="75" stroke="#000000" stroke-width="1" /><line x1="360" y1="45" x2="360" y2="75" stroke="#000000" stroke-width="1" /><line x1="40" y1="45" x2="40" y2="75" stroke="#000000" stroke-width="1" /><text y="61" text-anchor="middle" font-size="16" dominant-baseline="middle" x="200" font-family="sans-serif" >weight</text><line stroke-dasharray="1,3" x1="355" y1="45" x2="345" y2="75" stroke="#000000" stroke-width="1" /><line stroke-dasharray="1,3" x1="350" y1="45" x2="340" y2="75" stroke="#000000" stroke-width="1" /><rect x="360" y="45" height="30" width="320" fill="#e4b5f7" /><line x1="360" y1="45" x2="680" y2="45" stroke="#000000" stroke-width="1" /><line x1="360" y1="75" x2="680" y2="75" stroke="#000000" stroke-width="1" /><line x1="680" y1="45" x2="680" y2="75" stroke="#000000" stroke-width="1" /><line x1="360" y1="45" x2="360" y2="75" stroke="#000000" stroke-width="1" /><text y="61" text-anchor="middle" font-size="16" dominant-baseline="middle" x="520" font-family="sans-serif" >ebc_color</text><line stroke-dasharray="1,3" x1="675" y1="45" x2="665" y2="75" stroke="#000000" stroke-width="1" /><line stroke-dasharray="1,3" x1="670" y1="45" x2="660" y2="75" stroke="#000000" stroke-width="1" /><text font-size="11" font-family="Courier New, monospace" font-style="normal" dominant-baseline="middle" x="35" y="90" text-anchor="end" >20</text><rect x="40" y="75" height="30" width="320" fill="#e4b5f7" /><line x1="40" y1="75" x2="360" y2="75" stroke="#000000" stroke-width="1" /><line x1="40" y1="105" x2="360" y2="105" stroke="#000000" stroke-width="1" /><line x1="360" y1="75" x2="360" y2="105" stroke="#000000" stroke-width="1" /><line x1="40" y1="75" x2="40" y2="105" stroke="#000000" stroke-width="1" /><text y="91" text-anchor="middle" font-size="16" dominant-baseline="middle" x="200" font-family="sans-serif" >name_len</text><line stroke-dasharray="1,3" x1="355" y1="75" x2="345" y2="105" stroke="#000000" stroke-width="1" /><line stroke-dasharray="1,3" x1="350" y1="75" x2="340" y2="105" stroke="#000000" stroke-width="1" /><line x1="360" y1="75" x2="680" y2="75" stroke="#000000" stroke-width="1" /><line x1="680" y1="75" x2="680" y2="105" stroke="#000000" stroke-width="1" /><line x1="360" y1="75" x2="360" y2="105" stroke="#000000" stroke-width="1" /><text font-size="18" font-family="Palatino, Georgia, Times New Roman, serif" x="520" y="91" text-anchor="middle" dominant-baseline="middle" >name</text><text font-size="11" font-family="Courier New, monospace" font-style="normal" dominant-baseline="middle" x="35" y="120" text-anchor="end" >30</text><line x1="40" y1="105" x2="40" y2="120" stroke="#000000" stroke-width="1" /><line x1="680" y1="105" x2="680" y2="120" stroke="#000000" stroke-width="1" /><line stroke-dasharray="1,1" x1="40" y1="120" x2="680" y2="150" stroke="#000000" stroke-width="1" /><line x1="680" y1="105" x2="680" y2="150" stroke="#000000" stroke-width="1" /><line stroke-dasharray="1,1" x1="40" y1="130" x2="680" y2="160" stroke="#000000" stroke-width="1" /><line x1="40" y1="130" x2="40" y2="160" stroke="#000000" stroke-width="1" /><line x1="40" y1="160" x2="40" y2="175" stroke="#000000" stroke-width="1" /><line x1="680" y1="160" x2="680" y2="175" stroke="#000000" stroke-width="1" /><text font-size="11" font-family="Palatino, Georgia, Times New Roman, serif" font-style="italic" dominant-baseline="middle" x="35" y="190" text-anchor="end" >i+<tspan font-size="11" font-family="Courier New, monospace" font-style="normal" dominant-baseline="middle" >00</tspan></text><line x1="40" y1="175" x2="680" y2="175" stroke="#000000" stroke-width="1" /></svg>