<?xml version="1.0" encoding="UTF-8"?><svg xmlns:svg="http://www.w3.org/2000/svg" xmlns="http://www.w3.org/2000/svg" xmlns:xlink="http://www.w3.org/1999/xlink" version="1.0" width="681" height="398" viewBox="0 0 681 398" ><text x="60" y="8" font-family="Courier New, monospace" font-size="11" dominant-baseline="middle" text-anchor="middle" >0</text><text x="100" y="8" font-family="Courier New, monospace" font-size="11" dominant-baseline="middle" text-anchor="middle" >1</text><text x="140" y="8" font-family="Courier New, monospace" font-size="11" dominant-baseline="middle" text-anchor="middle" >2</text><text x="180" y="8" font-family="Courier New, monospace" font-size="11" dominant-baseline="middle" text-anchor="middle" >3</text><text x="220" y="8" font-family="Courier New, monospace" font-size="11" dominant-baseline="middle" text-anchor="middle" >4</text><text x="260" y="8" font-family="Courier New, monospace" font-size="11" dominant-baseline="middle" text-anchor="middle" >5</text><text x="300" y="8" font-family="Courier New, monospace" font-size="11" dominant-baseline="middle" text-anchor="middle" >6</text><text x="340" y="8" font-family="Courier New, monospace" font-size="11" dominant-baseline="middle" text-anchor="middle" >7</text><text x="380" y="8" font-family="Courier New, monospace" font-size="11" dominant-baseline="middle" text-anchor="middle" >8</text><text x="420" y="8" font-family="Courier New, monospace" font-size="11" dominant-baseline="middle" text-anchor="middle" >9</text><text x="460" y="8" font-family="Courier New, monospace" font-size="11" dominant-baseline="middle" text-anchor="middle" >10</text><text x="500" y="8" font-family="Courier New, monospace" font-size="11" dominant-baseline="middle" text-anchor="middle" >11</text><text x="540" y="8" font-family="Courier New, monospace" font-size="11" dominant-baseline="middle" text-anchor="middle" >12</text><text x="580" y="8" font-family="Courier New, monospace" font-size="11" dominant-baseline="middle" text-anchor="middle" >13</text><text x="620" y="8" font-family="Courier New, monospace" font-size="11" dominant-baseline="middle" text-anchor="middle" >14</text><text x="660" y="8" font-family="Courier New, monospace" font-size="11" dominant-baseline="middle" text-anchor="middle" >15</text><rect x="40" y="15" height="30" width="120" fill="#a0ffa0" /><line x1="40" y1="15" x2="160" y2="15" stroke="#000000" stroke-width="1" /><line x1="40" y1="45" x2="160" y2="45" stroke="#000000" stroke-width="1" /><line x1="160" y1="15" x2="160" y2="45" stroke="#000000" stroke-width="1" /><line x1="40" y1="15" x2="40" y2="45" stroke="#000000" stroke-width="1" /><text font-size="18" font-family="Palatino, Georgia, Times New Roman, serif" x="100" y="31" text-anchor="middle" dominant-baseline="middle" >time</text><rect x="160" y="15" height="30" width="40" fill="#ffb0a0" /><line x1="160" y1="15" x2="200" y2="15" stroke="#000000" stroke-width="1" /><line x1="160" y1="45" x2="200" y2="45" stroke="#000000" stroke-width="1" /><line x1="200" y1="15" x2="200" y2="45" stroke="#000000" stroke-width="1" /><line x1="160" y1="15" x2="160" y2="45" stroke="#000000" stroke-width="1" /><text font-size="18" font-family="Palatino, Georgia, Times New Roman, serif" x="180" y="31" text-anchor="middle" dominant-baseline="middle" >wt</text><rect x="200" y="15" height="30" width="80" fill="#a0ffa0" /><line x1="200" y1="15" x2="280" y2="15" stroke="#000000" stroke-width="1" /><line x1="200" y1="45" x2="280" y2="45" stroke="#000000" stroke-width="1" /><line x1="280" y1="15" x2="280" y2="45" stroke="#000000" stroke-width="1" /><line x1="200" y1="15" x2="200" y2="45" stroke="#000000" stroke-width="1" /><text font-size="18" font-family="Palatino, Georgia, Times New Roman, serif" x="240" y="31" text-anchor="middle" dominant-baseline="middle" >form</text><rect x="280" y="15" height="30" width="80" fill="#a0ffa0" /><line x1="280" y1="15" x2="360" y2="15" stroke="#000000" stroke-width="1" /><line x1="280" y1="45" x2="360" y2="45" stroke="#000000" stroke-width="1" /><line x1="360" y1="15" x2="360" y2="45" stroke="#000000" stroke-width="1" /><line x1="280" y1="15" x2="280" y2="45" stroke="#000000" stroke-width="1" /><text font-size="18" font-family="Palatino, Georgia, Times New Roman, serif" x="320" y="31" text-anchor="middle" dominant-baseline="middle" >use</text><text font-size="18" font-family="Palatino, Georgia, Times New Roman, serif" x="360" y="61" text-anchor="middle" dominant-baseline="middle" >if time == 0b111, then:</text><text x="60" y="82" font-family="Courier New, monospace" font-size="11" dominant-baseline="middle" text-anchor="middle" >0</text><text x="100" y="82" font-family="Courier New, monospace" font-size="11" dominant-baseline="middle" text-anchor="middle" >1</text><text x="140" y="82" font-family="Courier New, monospace" font-size="11" dominant-baseline="middle" text-anchor="middle" >2</text><text x="180" y="82" font-family="Courier New, monospace" font-size="11" dominant-baseline="middle" text-anchor="middle" >3</text><text x="220" y="82" font-family="Courier New, monospace" font-size="11" dominant-baseline="middle" text-anchor="middle" >4</text><text x="260" y="82" font-family="Courier New, monospace" font-size="11" dominant-baseline="middle" text-anchor="middle" >5</text><text x="300" y="82" font-family="Courier New, monospace" font-size="11" dominant-baseline="middle" text-anchor="middle" >6</text><text x="340" y="82" font-family="Courier New, monospace" font-size="11" dominant-baseline="middle" text-anchor="middle" >7</text><text x="380" y="82" font-family="Courier New, monospace" font-size="11" dominant-baseline="middle" text-anchor="middle" >8</text><text x="420" y="82" font-family="Courier New, monospace" font-size="11" dominant-baseline="middle" text-anchor="middle" >9</text><text x="460" y="82" font-family="Courier New, monospace" font-size="11" dominant-baseline="middle" text-anchor="middle" >10</text><text x="500" y="82" font-family="Courier New, monospace" font-size="11" dominant-baseline="middle" text-anchor="middle" >11</text><text x="540" y="82" font-family="Courier New, monospace" font-size="11" dominant-baseline="middle" text-anchor="middle" >12</text><text x="580" y="82" font-family="Courier New, monospace" font-size="11" dominant-baseline="middle" text-anchor="middle" >13</text><text x="620" y="82" font-family="Courier New, monospace" font-size="11" dominant-baseline="middle" text-anchor="middle" >14</text><text x="660" y="82" font-family="Courier New, monospace" font-size="11" dominant-baseline="middle" text-anchor="middle" >15</text><rect x="40" y="89" height="30" width="320" fill="#e4b5f7" /><line x1="40" y1="89" x2="360" y2="89" stroke="#000000" stroke-width="1" /><line x1="40" y1="119" x2="360" y2="119" stroke="#000000" stroke-width="1" /><line x1="360" y1="89" x2="360" y2="119" stroke="#000000" stroke-width="1" /><line x1="40" y1="89" x2="40" y2="119" stroke="#000000" stroke-width="1" /><text y="105" text-anchor="middle" font-size="16" dominant-baseline="middle" x="200" font-family="sans-serif" >custom_time</text><line stroke-dasharray="1,3" x1="355" y1="89" x2="345" y2="119" stroke="#000000" stroke-width="1" /><line stroke-dasharray="1,3" x1="350" y1="89" x2="340" y2="119" stroke="#000000" stroke-width="1" /><text font-size="18" font-family="Palatino, Georgia, Times New Roman, serif" x="360" y="135" text-anchor="middle" dominant-baseline="middle" >end if</text><text font-size="18" font-family="Palatino, Georgia, Times New Roman, serif" x="360" y="165" text-anchor="middle" dominant-baseline="middle" >if wt, then:</text><text x="60" y="186" font-family="Courier New, monospace" font-size="11" dominant-baseline="middle" text-anchor="middle" >0</text><text x="100" y="186" font-family="Courier New, monospace" font-size="11" dominant-baseline="middle" text-anchor="middle" >1</text><text x="140" y="186" font-family="Courier New, monospace" font-size="11" dominant-baseline="middle" text-anchor="middle" >2</text><text x="180" y="186" font-family="Courier New, monospace" font-size="11" dominant-baseline="middle" text-anchor="middle" >3</text><text x="220" y="186" font-family="Courier New, monospace" font-size="11" dominant-baseline="middle" text-anchor="middle" >4</text><text x="260" y="186" font-family="Courier New, monospace" font-size="11" dominant-baseline="middle" text-anchor="middle" >5</text><text x="300" y="186" font-family="Courier New, monospace" font-size="11" dominant-baseline="middle" text-anchor="middle" >6</text><text x="340" y="186" font-family="Courier New, monospace" font-size="11" dominant-baseline="middle" text-anchor="middle" >7</text><text x="380" y="186" font-family="Courier New, monospace" font-size="11" dominant-baseline="middle" text-anchor="middle" >8</text><text x="420" y="186" font-family="Courier New, monospace" font-size="11" dominant-baseline="middle" text-anchor="middle" >9</text><text x="460" y="186" font-family="Courier New, monospace" font-size="11" dominant-baseline="middle" text-anchor="middle" >10</text><text x="500" y="186" font-family="Courier New, monospace" font-size="11" dominant-baseline="middle" text-anchor="middle" >11</text><text x="540" y="186" font-family="Courier New, monospace" font-size="11" dominant-baseline="middle" text-anchor="middle" >12</text><text x="580" y="186" font-family="Courier New, monospace" font-size="11" dominant-baseline="middle" text-anchor="middle" >13</text><text x="620" y="186" font-family="Courier New, monospace" font-size="11" dominant-baseline="middle" text-anchor="middle" >14</text><text x="660" y="186" font-family="Courier New, monospace" font-size="11" dominant-baseline="middle" text-anchor="middle" >15</text><rect x="40" y="193" height="30" width="320" fill="#e4b5f7" /><line x1="40" y1="193" x2="360" y2="193" stroke="#000000" stroke-width="1" /><line x1="40" y1="223" x2="360" y2="223" stroke="#000000" stroke-width="1" /><line x1="360" y1="193" x2="360" y2="223" stroke="#000000" stroke-width="1" /><line x1="40" y1="193" x2="40" y2="223" stroke="#000000" stroke-width="1" /><text y="209" text-anchor="middle" font-size="16" dominant-baseline="middle" x="200" font-family="sans-serif" >grams</text><line stroke-dasharray="1,3" x1="355" y1="193" x2="345" y2="223" stroke="#000000" stroke-width="1" /><line stroke-dasharray="1,3" x1="350" y1="193" x2="340" y2="223" stroke="#000000" stroke-width="1" /><text font-size="18" font-family="Palatino, Georgia, Times New Roman, serif" x="360" y="239" text-anchor="middle" dominant-baseline="middle" >end if</text><text x="60" y="260" font-family="Courier New, monospace" font-size="11" dominant-baseline="middle" text-anchor="middle" >0</text><text x="100" y="260" font-family="Courier New, monospace" font-size="11" dominant-baseline="middle" text-anchor="middle" >1</text><text x="140" y="260" font-family="Courier New, monospace" font-size="11" dominant-baseline="middle" text-anchor="middle" >2</text><text x="180" y="260" font-family="Courier New, monospace" font-size="11" dominant-baseline="middle" text-anchor="middle" >3</text><text x="220" y="260" font-family="Courier New, monospace" font-size="11" dominant-baseline="middle" text-anchor="middle" >4</text><text x="260" y="260" font-family="Courier New, monospace" font-size="11" dominant-baseline="middle" text-anchor="middle" >5</text><text x="300" y="260" font-family="Courier New, monospace" font-size="11" dominant-baseline="middle" text-anchor="middle" >6</text><text x="340" y="260" font-family="Courier New, monospace" font-size="11" dominant-baseline="middle" text-anchor="middle" >7</text><text x="380" y="260" font-family="Courier New, monospace" font-size="11" dominant-baseline="middle" text-anchor="middle" >8</text><text x="420" y="260" font-family="Courier New, monospace" font-size="11" dominant-baseline="middle" text-anchor="middle" >9</text><text x="460" y="260" font-family="Courier New, monospace" font-size="11" dominant-baseline="middle" text-anchor="middle" >10</text><text x="500" y="260" font-family="Courier New, monospace" font-size="11" dominant-baseline="middle" text-anchor="middle" >11</text><text x="540" y="260" font-family="Courier New, monospace" font-size="11" dominant-baseline="middle" text-anchor="middle" >12</text><text x="580" y="260" font-family="Courier New, monospace" font-size="11" dominant-baseline="middle" text-anchor="middle" >13</text><text x="620" y="260" font-family="Courier New, monospace" font-size="11" dominant-baseline="middle" text-anchor="middle" >14</text><text x="660" y="260" font-family="Courier New, monospace" font-size="11" dominant-baseline="middle" text-anchor="middle" >15</text><rect x="40" y="267" height="30" width="320" fill="#ffffa0" /><line x1="40" y1="267" x2="360" y2="267" stroke="#000000" stroke-width="1" /><line x1="40" y1="297" x2="360" y2="297" stroke="#000000" stroke-width="1" /><line x1="360" y1="267" x2="360" y2="297" stroke="#000000" stroke-width="1" /><line x1="40" y1="267" x2="40" y2="297" stroke="#000000" stroke-width="1" /><text y="283" text-anchor="middle" font-size="16" dominant-baseline="middle" x="200" font-family="sans-serif" >alpha_acid.1</text><line stroke-dasharray="1,3" x1="355" y1="267" x2="345" y2="297" stroke="#000000" stroke-width="1" /><line stroke-dasharray="1,3" x1="350" y1="267" x2="340" y2="297" stroke="#000000" stroke-width="1" /><rect x="360" y="267" height="30" width="320" fill="#e4b5f7" /><line x1="360" y1="267" x2="680" y2="267" stroke="#000000" stroke-width="1" /><line x1="360" y1="297" x2="680" y2="297" stroke="#000000" stroke-width="1" /><line x1="680" y1="267" x2="680" y2="297" stroke="#000000" stroke-width="1" /><line x1="360" y1="267" x2="360" y2="297" stroke="#000000" stroke-width="1" /><text y="283" text-anchor="middle" font-size="16" dominant-baseline="middle" x="520" font-family="sans-serif" >name_len</text><line stroke-dasharray="1,3" x1="675" y1="267" x2="665" y2="297" stroke="#000000" stroke-width="1" /><line stroke-dasharray="1,3" x1="670" y1="267" x2="660" y2="297" stroke="#000000" stroke-width="1" /><text font-size="11" font-family="Courier New, monospace" font-style="normal" dominant-baseline="middle" x="35" y="282" text-anchor="end" >00</text><text font-size="11" font-family="Courier New, monospace" font-style="normal" dominant-baseline="middle" x="35" y="312" text-anchor="end" >10</text><line x1="40" y1="297" x2="40" y2="297" stroke="#000000" stroke-width="1" /><line x1="40" y1="297" x2="40" y2="327" stroke="#000000" stroke-width="1" /><line x1="40" y1="297" x2="40" y2="327" stroke="#000000" stroke-width="1" /><line x1="680" y1="297" x2="680" y2="327" stroke="#000000" stroke-width="1" /><line x1="40" y1="297" x2="40" y2="327" stroke="#000000" stroke-width="1" /><text font-size="18" font-family="Palatino, Georgia, Times New Roman, serif" x="360" y="313" text-anchor="middle" dominant-baseline="middle" >name</text><text font-size="11" font-family="Courier New, monospace" font-style="normal" dominant-baseline="middle" x="35" y="342" text-anchor="end" >20</text><line x1="40" y1="327" x2="40" y2="342" stroke="#000000" stroke-width="1" /><line x1="680" y1="327" x2="680" y2="342" stroke="#000000" stroke-width="1" /><line stroke-dasharray="1,1" x1="40" y1="342" x2="680" y2="372" stroke="#000000" stroke-width="1" /><line x1="680" y1="327" x2="680" y2="372" stroke="#000000" stroke-width="1" /><line stroke-dasharray="1,1" x1="40" y1="352" x2="680" y2="382" stroke="#000000" stroke-width="1" /><line x1="40" y1="352" x2="40" y2="382" stroke="#000000" stroke-width="1" /><line x1="40" y1="382" x2="40" y2="397" stroke="#000000" stroke-width="1" /><line x1="680" y1="382" x2="680" y2="397" stroke="#000000" stroke-width="1" /><text font-size="11" font-family="Palatino, Georgia, Times New Roman, serif" font-style="italic" dominant-baseline="middle" x="35" y="412" text-anchor="end" >i+<tspan font-size="11" font-family="Courier New, monospace" font-style="normal" dominant-baseline="middle" >00</tspan></text><line x1="40" y1="397" x2="680" y2="397" stroke="#000000" stroke-width="1" /></svg>