<svg id="img" viewBox="0 0 256 256" fill="none" xmlns="http://www.w3.org/2000/svg">
	<defs></defs>
	<path style="stroke: var(--color, black); fill: rgb(255, 245, 220); stroke-width: 2px;"
		d="M 96.636 15.035 C 96.732 5.093 158.816 4.518 158.453 15.339"></path>
	<path style="fill: rgb(255, 245, 220);"
		d="M 94.442 15.915 C 93.282 16.907 92.97 27.861 92.792 31.9 C 92.612 35.942 93.359 47.768 93.359 47.768 L 161.879 48.068 C 161.879 48.068 162.718 36.641 162.388 31.915 C 162.07 27.375 161.121 16.844 161.311 16.844 C 161.233 15.649 144.35 13.938 130.411 13.971 C 117.612 14.003 95.803 14.935 94.442 15.915 Z">
	</path>
	<path
		d="M 162.074 48.22 C 162.074 88.064 148.325 191.016 127.162 191.016 C 104.414 191.016 93.289 90.207 93.289 47.904 C 93.289 46.716 162.074 46.89 162.074 48.22 Z"
		style="stroke-width: 3px; fill: var(--color-beer, #da6e18);"></path>
	<path
		d="M 167.213 41.835 C 167.213 66.254 156.502 196.618 127.416 196.618 C 93.622 196.618 87.811 61.971 87.811 41.395 C 87.811 14.772 82.122 13.675 127.851 13.675 C 174.357 13.675 167.213 14.913 167.213 41.835 Z"
		style="stroke: var(--color, black); fill: none; stroke-width: 3px;"></path>
	<path style="fill: rgb(255, 255, 255);"
		d="M 97.444 18.028 L 107.128 17.282 C 101.001 65.01 112.871 164.526 120.596 189.618 L 116.824 185.903 C 107.664 161.516 92.265 64.907 97.444 18.028 Z">
	</path>
	<ellipse style="stroke: rgb(255, 255, 255); stroke-width: 3px; fill: var(--color-beer, #da6e18); stroke-opacity: 0.6;"
		cx="135.665" cy="37.922" rx="4.108" ry="4.108"></ellipse>
	<path style="fill: rgb(255, 255, 255); fill-opacity: 0.85;"
		d="M 177.283 72.736 C 177.283 72.736 160.895 130.692 157.869 181.973 C 156.984 196.966 156.119 226.997 156.119 226.997 C 156.119 226.997 160.101 197.712 161.212 183.037 C 165.16 130.881 177.283 72.736 177.283 72.736 Z"
		transform="matrix(-1, 0, 0, -1, 315.965066, 249.904803)"></path>
	<ellipse style="stroke: rgb(255, 255, 255); stroke-width: 3px; fill: var(--color-beer, #da6e18); stroke-opacity: 0.6;"
		cx="137.146" cy="48.353" rx="4.108" ry="4.108"></ellipse>
	<ellipse style="stroke: rgb(255, 255, 255); stroke-width: 3px; fill: var(--color-beer, #da6e18); stroke-opacity: 0.6;"
		cx="145.693" cy="52.473" rx="2.324" ry="2.324"></ellipse>
	<ellipse style="stroke: rgb(255, 255, 255); stroke-width: 3px; fill: var(--color-beer, #da6e18); stroke-opacity: 0.6;"
		cx="139.105" cy="57.449" rx="2.371" ry="2.371"></ellipse>
	<ellipse style="stroke: rgb(255, 255, 255); stroke-width: 3px; fill: var(--color-beer, #da6e18); stroke-opacity: 0.6;"
		cx="145.509" cy="60.464" rx="1.57" ry="1.57"></ellipse>
	<ellipse style="stroke: rgb(255, 255, 255); stroke-width: 3px; fill: var(--color-beer, #da6e18); stroke-opacity: 0.6;"
		cx="142.893" cy="65.742" rx="0.888" ry="0.888"></ellipse>
	<ellipse style="stroke: rgb(255, 255, 255); stroke-width: 3px; fill: var(--color-beer, #da6e18); stroke-opacity: 0.6;"
		cx="144.952" cy="71.94" rx="0.888" ry="0.888"></ellipse>
	<ellipse style="stroke: rgb(255, 255, 255); stroke-width: 3px; fill: var(--color-beer, #da6e18); stroke-opacity: 0.6;"
		cx="142.819" cy="39.906" rx="2.932" ry="2.932"></ellipse>
	<ellipse style="stroke: rgb(255, 255, 255); stroke-width: 3px; fill: var(--color-beer, #da6e18); stroke-opacity: 0.6;"
		cx="129.798" cy="36.689" rx="1.909" ry="1.909"></ellipse>
	<ellipse style="stroke: rgb(255, 255, 255); stroke-width: 3px; fill: var(--color-beer, #da6e18); stroke-opacity: 0.6;"
		cx="128.058" cy="117.723" rx="4.108" ry="4.108"></ellipse>
	<ellipse style="stroke: rgb(255, 255, 255); stroke-width: 3px; fill: var(--color-beer, #da6e18); stroke-opacity: 0.6;"
		cx="131.955" cy="127.604" rx="2.371" ry="2.371"></ellipse>
	<ellipse style="stroke: rgb(255, 255, 255); stroke-width: 3px; fill: var(--color-beer, #da6e18); stroke-opacity: 0.6;"
		cx="124.445" cy="141.994" rx="0.888" ry="0.888"></ellipse>
	<path style="stroke: var(--color, black); fill: none; stroke-linecap: round; stroke-width: 3px;"
		d="M 118.876 194.524 C 123.948 216.288 120.212 231.123 100.323 233.566"></path>
	<path style="stroke: var(--color, black); fill: none; stroke-linecap: round; stroke-width: 3px;"
		d="M 151.396 224.508 C 156.47 202.742 152.732 187.908 132.844 185.466"
		transform="matrix(-1, 0, 0, -1, 286.281667, 418.973992)"></path>
	<path
		d="M 169.497 234.817 C 169.497 240.443 150.137 245.004 126.252 245.004 C 102.368 245.004 83.007 240.443 83.007 234.817 C 83.007 229.191 102.368 224.63 126.252 224.63 C 150.137 224.63 169.497 229.191 169.497 234.817 Z"
		style="fill: none; stroke-width: 4px;"></path>
	<path
		d="M 170.865 234.817 C 170.865 236.683 169.147 238.651 166.765 239.977 C 164.473 241.254 161.126 242.414 157.146 243.35 C 149.235 245.215 138.266 246.372 126.252 246.372 C 114.238 246.372 103.269 245.215 95.359 243.35 C 91.379 242.414 88.031 241.254 85.738 239.977 C 83.358 238.651 81.639 236.683 81.639 234.817 C 81.639 232.953 83.358 230.982 85.738 229.656 C 88.031 228.379 91.379 227.22 95.359 226.282 C 101.044 224.944 109.311 223.968 117.409 223.527 C 117.002 223.939 116.618 224.386 116.26 224.874 C 115.898 225.367 115.382 225.879 114.95 226.416 C 108.068 226.901 100.932 227.779 95.986 228.945 C 92.141 229.85 89.153 230.886 87.069 232.046 C 85.075 233.158 84.374 233.87 84.374 234.817 C 84.374 235.765 85.075 236.477 87.069 237.587 C 89.153 238.749 92.141 239.784 95.986 240.69 C 103.728 242.513 114.381 243.637 126.252 243.637 C 138.121 243.637 148.776 242.513 156.517 240.69 C 160.364 239.784 163.349 238.749 165.434 237.587 C 167.43 236.477 168.131 235.765 168.131 234.817 C 168.131 233.87 167.43 233.158 165.434 232.046 C 163.349 230.886 160.364 229.85 156.517 228.945 C 152.014 227.884 144.523 227.06 138.382 226.556 C 138.359 225.537 138.109 224.413 137.499 223.902 C 137.421 223.836 137.325 223.779 137.222 223.727 C 144.064 224.23 152.201 225.118 157.146 226.282 C 161.126 227.22 164.473 228.379 166.765 229.656 C 169.147 230.982 170.865 232.953 170.865 234.817 Z"
		style="fill: var(--color, black);"></path>
	<ellipse style="stroke: rgb(255, 255, 255); stroke-width: 3px; fill: var(--color-beer, #da6e18); stroke-opacity: 0.6;"
		cx="130.749" cy="136.32" rx="1.57" ry="1.57"></ellipse>
	<ellipse style="stroke: rgb(255, 255, 255); stroke-width: 3px; fill: var(--color-beer, #da6e18); stroke-opacity: 0.6;"
		cx="125.852" cy="132.406" rx="0.888" ry="0.888"></ellipse>
	<path style="stroke: var(--color, black); fill: none;"
		d="M 119.727 196.181 C 120.194 199.426 133.142 199.661 133.652 196.724"></path>
	<path style="stroke: var(--color, black); fill: none;"
		d="M 114.419 189.494 C 123.604 195.209 130.063 194.988 138.977 190.003"></path>
	<path style="fill: var(--color, black);"
		d="M 131.36 200.9 C 129.884 212.098 129.959 215.186 132.374 221.226 C 129.292 219.65 129.479 218.973 129.291 217.309 C 128.529 210.545 129.514 206.3 131.36 200.9 Z">
	</path>
	<path style="fill: var(--color, black);"
		d="M 126.76 221.263 C 125.612 220.997 123.613 220.616 122.491 221.146 C 121.664 221.54 120.916 222.114 121.508 222.981 C 122.01 223.718 123.578 223.42 124.294 223.278 C 124.97 223.144 125.605 222.859 126.255 222.659 C 127.439 222.293 131.267 222.059 131.689 222.137">
	</path>
	<path
		d="M 170.305 236.41 C 170.305 238.275 168.584 240.243 166.204 241.569 C 163.911 242.846 160.565 244.007 156.583 244.944 C 148.674 246.808 137.704 247.965 125.691 247.965 C 113.677 247.965 102.707 246.808 94.797 244.944 C 90.817 244.007 87.47 242.846 85.177 241.569 C 82.797 240.243 81.471 236.977 81.471 235.113 C 81.471 233.248 83.813 235.462 83.813 236.41 C 83.813 237.358 84.512 238.067 86.509 239.18 C 88.594 240.341 91.58 241.375 95.425 242.281 C 103.165 244.106 113.819 245.229 125.691 245.229 C 137.561 245.229 148.215 244.106 155.956 242.281 C 159.802 241.375 162.787 240.341 164.872 239.18 C 166.867 238.067 167.57 237.358 167.57 236.41 C 167.57 235.462 170.305 234.544 170.305 236.41 Z"
		style="fill: var(--color, black);"></path>
	<path style="fill: var(--bg-color, white);"
		d="M 87.967 239.178 L 89.809 239.848 L 89.214 242.533 L 87.29 241.841 L 87.967 239.178 Z"></path>
	<path style="fill: var(--bg-color, white);"
		d="M 90.893 240.241 L 96.117 241.657 L 95.538 244.215 L 90.459 242.849 L 90.893 240.241 Z"></path>
	<path style="fill: var(--bg-color, white);"
		d="M 151.891 242.474 C 152.464 243.329 165.76 239.689 165.325 239.037 L 165.01 240.91 C 165.249 241.327 152.884 245.391 152.57 244.843 L 151.891 242.474 Z">
	</path>
	<path style="fill: var(--color, black);"
		d="M 104.802 236.546 C 113.871 238.88 122.74 239.584 128.087 238.699 C 133.016 237.884 142.98 235.688 141.013 233.44 C 139.839 232.1 134.468 228.789 133.091 229.988 C 132.434 230.557 137.373 233.301 135.027 234.63 C 126.263 239.587 113.96 237.826 104.228 236.174">
	</path>
	<path style="stroke: var(--color, black); fill: none;"
		d="M 119.049 198.098 C 119.515 201.343 133.948 201.469 134.458 198.532"></path>
	<ellipse style="stroke: rgb(255, 255, 255); stroke-width: 3px; fill: var(--color-beer, #da6e18); stroke-opacity: 0.6;"
		cx="144.077" cy="80.337" rx="0.888" ry="0.888"></ellipse>
	<path style="fill: rgb(255, 255, 255); fill-opacity: 0.65;"
		d="M 117.009 157.284 C 117.009 157.284 111.251 120.442 109.527 86.506 C 108.464 65.584 110.663 23.67 110.663 23.67 C 110.663 23.67 111.252 65.439 112.501 86.281 C 114.531 120.171 117.009 157.284 117.009 157.284 Z">
	</path>
	<path style="fill: var(--color, black);"
		d="M 122.591 201.011 C 122.604 200.984 123.616 200.119 125.219 201.39 C 126.823 202.662 124.3 214.537 123.649 214.537 C 124.018 214.508 123.861 200.913 122.591 201.011 Z">
	</path>
	<path style="fill: var(--color, black);"
		d="M 157.655 18.816 C 158.425 17.149 162.571 18.032 163.453 20.735 C 163.929 22.205 163.875 23.927 163.52 25.281 C 163.089 26.917 162.856 27.394 163.327 30.333 C 161.023 27.042 164.828 20.972 157.655 18.816 Z">
	</path>
	<path style="fill: var(--color, black);"
		d="M 154.149 232.473 L 158.588 233.566 L 153.454 234.753 C 153.454 234.753 154.378 232.486 154.149 232.473 Z">
	</path>
	<path style="fill: var(--color, black);"
		d="M 95.774 234.836 L 100.214 233.743 L 95.081 232.556 C 95.081 232.556 96.004 234.822 95.774 234.836 Z"
		transform="matrix(-1, 0, 0, -1, 195.294996, 467.391995)"></path>
	<rect x="123.836" y="59.758" width="1.149" height="0.932" style="fill: var(--bg-color, white);"
		transform="matrix(0.992885, -0.119079, 0.119079, 0.992885, -31.721682, -30.369051)"></rect>
	<rect x="165.982" y="59.334" width="7.091" height="0.932" style="fill: var(--bg-color, white);"
		transform="matrix(0.998478, -0.055143, 0.055143, 0.998478, -67.748596, -36.287914)"></rect>
	<rect x="313.498" y="59.334" width="13.394" height="0.932" style="fill: var(--bg-color, white);"
		transform="matrix(0.994203, 0.10752, -0.10752, 0.994203, -156.775497, -79.05175)"></rect>
	<path style="fill: var(--color, black);"
		d="M 92.417 19.976 C 91.71 20.765 91.008 22.31 92.207 22.395 C 96.116 18.473 117.082 16.903 120.153 17.385 C 120.471 15.884 94.254 17.102 92.417 19.976 Z">
	</path>
	<ellipse style="stroke: rgb(255, 255, 255); stroke-width: 3px; fill: var(--color-beer, #da6e18); stroke-opacity: 0.6;"
		cx="126.84" cy="184.635" rx="0.822" ry="0.868"></ellipse>
	<ellipse style="stroke: rgb(255, 255, 255); stroke-width: 3px; fill: var(--color-beer, #da6e18); stroke-opacity: 0.6;"
		cx="132.686" cy="179.095" rx="1.454" ry="1.533"></ellipse>
	<ellipse style="stroke: rgb(255, 255, 255); stroke-width: 3px; fill: var(--color-beer, #da6e18); stroke-opacity: 0.6;"
		cx="129.345" cy="173.355" rx="0.822" ry="0.868"></ellipse>
</svg>
