<svg id="img" viewBox="0 0 256 256" fill="none" xmlns="http://www.w3.org/2000/svg">
	<defs></defs>
	<path style="stroke: var(--color, black); fill: rgb(255, 245, 220); stroke-width: 2px;"
		d="M 96.636 15.035 C 96.732 5.093 158.816 4.518 158.453 15.339"></path>
	<path style="fill: rgb(255, 245, 220);"
		d="M 94.442 15.915 C 93.282 16.907 92.97 27.861 92.792 31.9 C 92.612 35.942 89.359 47.768 89.359 47.768 L 165.879 48.068 C 165.879 48.068 162.718 36.641 162.388 31.915 C 162.07 27.375 161.121 16.844 161.311 16.844 C 161.233 15.649 144.35 13.938 130.411 13.971 C 117.612 14.003 95.803 14.935 94.442 15.915 Z">
	</path>
	<path
		d="M 178.604 98.426 C 178.604 125.566 154.832 149.339 127.69 149.339 C 100.548 149.339 76.773 125.566 76.773 98.426 C 76.773 85.835 81.507 65.786 89.289 47.904 C 89.764 46.815 165.547 46.999 166.074 48.22 C 173.758 66.004 178.604 85.926 178.604 98.426 Z"
		style="stroke-width: 3px; fill: var(--color-beer, #da6e18);"></path>
	<path
		d="M 183.237 98.779 C 183.237 129.608 158.245 154.6 127.416 154.6 C 96.587 154.6 71.595 129.608 71.595 98.779 C 71.595 84.481 76.971 61.708 85.811 41.395 C 96.032 17.912 70.051 13.416 127.851 13.675 C 184.597 13.929 158.403 18.65 169.213 41.835 C 178.511 61.777 183.237 84.584 183.237 98.779 Z"
		style="stroke: var(--color, black); fill: none; stroke-width: 3px;"></path>
	<path style="fill: rgb(255, 255, 255); fill-opacity: 0.85;"
		d="M 110.293 137.595 C 93.107 130.695 87.148 116.461 86.145 109.767 C 83.666 93.22 84.655 84.305 93.12 58.829 C 88.225 81.396 85.357 92.822 91.209 108.719 C 95.254 119.712 96.779 125.132 110.293 137.595 Z">
	</path>
	<path style="fill: rgb(255, 255, 255);"
		d="M 104.037 47.504 C 108.154 43.05 117.263 44.437 115.771 48.057 C 113.663 53.167 110.214 70.908 110.997 77.052 C 111.502 81.026 99.815 79.899 99.028 75.973 C 97.262 67.155 99.03 52.918 104.037 47.504 Z">
	</path>
	<ellipse style="stroke: rgb(255, 255, 255); stroke-width: 3px; fill: var(--color-beer, #da6e18); stroke-opacity: 0.6;"
		cx="126.598" cy="41.729" rx="4.108" ry="4.108"></ellipse>
	<path style="fill: rgb(255, 255, 255); fill-opacity: 0.85;"
		d="M 168.656 112.002 C 168.656 112.002 155.793 117.542 150.971 127.255 C 149.329 130.564 145.928 136.156 147.914 137.434 C 151.711 139.88 151.48 132.144 153.314 128.319 C 158.061 118.417 168.656 112.002 168.656 112.002 Z"
		transform="matrix(-1, 0, 0, -1, 315.965066, 249.904803)"></path>
	<ellipse style="stroke: rgb(255, 255, 255); stroke-width: 3px; fill: var(--color-beer, #da6e18); stroke-opacity: 0.6;"
		cx="128.079" cy="52.16" rx="4.108" ry="4.108"></ellipse>
	<ellipse style="stroke: rgb(255, 255, 255); stroke-width: 3px; fill: var(--color-beer, #da6e18); stroke-opacity: 0.6;"
		cx="136.626" cy="56.28" rx="2.324" ry="2.324"></ellipse>
	<ellipse style="stroke: rgb(255, 255, 255); stroke-width: 3px; fill: var(--color-beer, #da6e18); stroke-opacity: 0.6;"
		cx="130.038" cy="61.256" rx="2.371" ry="2.371"></ellipse>
	<ellipse style="stroke: rgb(255, 255, 255); stroke-width: 3px; fill: var(--color-beer, #da6e18); stroke-opacity: 0.6;"
		cx="136.442" cy="64.271" rx="1.57" ry="1.57"></ellipse>
	<ellipse style="stroke: rgb(255, 255, 255); stroke-width: 3px; fill: var(--color-beer, #da6e18); stroke-opacity: 0.6;"
		cx="133.826" cy="69.549" rx="0.888" ry="0.888"></ellipse>
	<ellipse style="stroke: rgb(255, 255, 255); stroke-width: 3px; fill: var(--color-beer, #da6e18); stroke-opacity: 0.6;"
		cx="135.885" cy="75.747" rx="0.888" ry="0.888"></ellipse>
	<ellipse style="stroke: rgb(255, 255, 255); stroke-width: 3px; fill: var(--color-beer, #da6e18); stroke-opacity: 0.6;"
		cx="133.752" cy="43.713" rx="2.932" ry="2.932"></ellipse>
	<ellipse style="stroke: rgb(255, 255, 255); stroke-width: 3px; fill: var(--color-beer, #da6e18); stroke-opacity: 0.6;"
		cx="120.731" cy="40.496" rx="1.909" ry="1.909"></ellipse>
	<ellipse style="stroke: rgb(255, 255, 255); stroke-width: 3px; fill: var(--color-beer, #da6e18); stroke-opacity: 0.6;"
		cx="152.986" cy="106.35" rx="4.108" ry="4.108"></ellipse>
	<ellipse style="stroke: rgb(255, 255, 255); stroke-width: 3px; fill: var(--color-beer, #da6e18); stroke-opacity: 0.6;"
		cx="149.883" cy="116.231" rx="2.371" ry="2.371"></ellipse>
	<ellipse style="stroke: rgb(255, 255, 255); stroke-width: 3px; fill: var(--color-beer, #da6e18); stroke-opacity: 0.6;"
		cx="142.373" cy="130.621" rx="0.888" ry="0.888"></ellipse>
	<path style="stroke: var(--color, black); fill: none; stroke-width: 4px; stroke-linecap: round;"
		d="M 118.876 154.524 C 123.948 176.288 120.212 200.123 100.323 202.566"></path>
	<path style="stroke: var(--color, black); fill: none; stroke-width: 4px; stroke-linecap: round;"
		d="M 151.396 202.508 C 156.47 180.742 152.732 156.908 132.844 154.466"
		transform="matrix(-1, 0, 0, -1, 286.281667, 356.974)"></path>
	<path
		d="M 169.497 203.817 C 169.497 209.443 150.137 214.004 126.252 214.004 C 102.368 214.004 83.007 209.443 83.007 203.817 C 83.007 198.191 102.368 193.63 126.252 193.63 C 150.137 193.63 169.497 198.191 169.497 203.817 Z"
		style="fill: none; stroke-width: 4px;"></path>
	<path
		d="M 170.865 203.817 C 170.865 205.683 169.147 207.651 166.765 208.977 C 164.473 210.254 161.126 211.414 157.146 212.35 C 149.235 214.215 138.266 215.372 126.252 215.372 C 114.238 215.372 103.269 214.215 95.359 212.35 C 91.379 211.414 88.031 210.254 85.738 208.977 C 83.358 207.651 81.639 205.683 81.639 203.817 C 81.639 201.953 83.358 199.982 85.738 198.656 C 88.031 197.379 91.379 196.22 95.359 195.282 C 101.044 193.944 108.311 192.968 116.409 192.527 C 116.002 192.939 115.618 193.386 115.26 193.874 C 114.898 194.367 114.382 194.879 113.95 195.416 C 107.068 195.901 100.932 196.779 95.986 197.945 C 92.141 198.85 89.153 199.886 87.069 201.046 C 85.075 202.158 84.374 202.87 84.374 203.817 C 84.374 204.765 85.075 205.477 87.069 206.587 C 89.153 207.749 92.141 208.784 95.986 209.69 C 103.728 211.513 114.381 212.637 126.252 212.637 C 138.121 212.637 148.776 211.513 156.517 209.69 C 160.364 208.784 163.349 207.749 165.434 206.587 C 167.43 205.477 168.131 204.765 168.131 203.817 C 168.131 202.87 167.43 202.158 165.434 201.046 C 163.349 199.886 160.364 198.85 156.517 197.945 C 152.014 196.884 146.523 196.06 140.382 195.556 C 140.359 194.537 140.109 193.413 139.499 192.902 C 139.421 192.836 139.325 192.779 139.222 192.727 C 146.064 193.23 152.201 194.118 157.146 195.282 C 161.126 196.22 164.473 197.379 166.765 198.656 C 169.147 199.982 170.865 201.953 170.865 203.817 Z"
		style="fill: var(--color, black);"></path>
	<ellipse style="stroke: rgb(255, 255, 255); stroke-width: 3px; fill: var(--color-beer, #da6e18); stroke-opacity: 0.6;"
		cx="148.677" cy="124.947" rx="1.57" ry="1.57"></ellipse>
	<ellipse style="stroke: rgb(255, 255, 255); stroke-width: 3px; fill: var(--color-beer, #da6e18); stroke-opacity: 0.6;"
		cx="143.78" cy="121.033" rx="0.888" ry="0.888"></ellipse>
	<path style="stroke: var(--color, black); fill: none; stroke-width: 2px;"
		d="M 118.811 154.881 C 119.278 158.126 133.71 158.251 134.22 155.314"></path>
	<path style="stroke: var(--color, black); fill: none;"
		d="M 95.626 144.54 C 117.706 153.612 134.082 154.204 158.151 145.366"></path>
	<path style="fill: var(--color, black);"
		d="M 130.944 156.414 C 128.044 172.094 130.703 187.637 135.918 197.592 C 132.128 193.778 130.397 191.714 129.134 185.87 C 127.1 176.454 128.709 164.085 130.944 156.414 Z">
	</path>
	<path style="fill: var(--color, black);"
		d="M 125.193 190.652 C 124.026 190.382 121.99 189.994 120.848 190.533 C 120.006 190.934 119.245 191.519 119.847 192.402 C 120.358 193.151 121.954 192.848 122.684 192.704 C 123.371 192.568 124.017 192.277 124.68 192.073 C 125.885 191.702 129.782 191.463 130.212 191.543">
	</path>
	<path
		d="M 170.305 205.41 C 170.305 207.275 168.584 209.243 166.204 210.569 C 163.911 211.846 160.565 213.007 156.583 213.944 C 148.674 215.808 137.704 216.965 125.691 216.965 C 113.677 216.965 102.707 215.808 94.797 213.944 C 90.817 213.007 87.47 211.846 85.177 210.569 C 82.797 209.243 81.471 205.977 81.471 204.113 C 81.471 202.248 83.813 204.462 83.813 205.41 C 83.813 206.358 84.512 207.067 86.509 208.18 C 88.594 209.341 91.58 210.375 95.425 211.281 C 103.165 213.106 113.819 214.229 125.691 214.229 C 137.561 214.229 148.215 213.106 155.956 211.281 C 159.802 210.375 162.787 209.341 164.872 208.18 C 166.867 207.067 167.57 206.358 167.57 205.41 C 167.57 204.462 170.305 203.544 170.305 205.41 Z"
		style="fill: var(--color, black);"></path>
	<path style="fill: var(--bg-color, white);"
		d="M 87.967 208.178 L 89.809 208.848 L 89.214 211.533 L 87.29 210.841 L 87.967 208.178 Z"></path>
	<path style="fill: var(--bg-color, white);"
		d="M 90.893 209.241 L 96.117 210.657 L 95.538 213.215 L 90.459 211.849 L 90.893 209.241 Z"></path>
	<path style="fill: var(--bg-color, white);"
		d="M 151.891 211.474 C 152.464 212.329 165.76 208.689 165.325 208.037 L 165.01 209.91 C 165.249 210.327 152.884 214.391 152.57 213.843 L 151.891 211.474 Z">
	</path>
	<path style="fill: var(--color, black);"
		d="M 104.802 205.546 C 113.871 207.88 122.74 208.584 128.087 207.699 C 133.016 206.884 142.98 204.688 141.013 202.44 C 139.839 201.1 134.468 197.789 133.091 198.988 C 132.434 199.557 137.373 202.301 135.027 203.63 C 126.263 208.587 113.96 206.826 104.228 205.174">
	</path>
	<path style="stroke: var(--color, black); fill: none;"
		d="M 119.049 156.821 C 119.515 160.066 133.948 160.192 134.458 157.255"></path>
	<path style="fill: rgb(255, 255, 255);"
		d="M 101.119 84.352 C 102.851 82.477 112.576 81.314 110.554 84.54 C 108.564 87.713 107.71 91.385 108.653 94.277 C 109.386 96.523 102.813 96.237 102.482 94.584 C 101.739 90.87 99.008 86.634 101.119 84.352 Z"
		transform="matrix(0.993587, -0.113067, 0.113067, 0.993587, -9.409015, 12.509812)"></path>
	<ellipse style="stroke: rgb(255, 255, 255); stroke-width: 3px; fill: var(--color-beer, #da6e18); stroke-opacity: 0.6;"
		cx="135.01" cy="84.144" rx="0.888" ry="0.888"></ellipse>
	<path style="fill: rgb(255, 255, 255); fill-opacity: 0.75;"
		d="M 120.227 138.266 C 111.921 137.118 105.392 128.809 102.141 124.322 C 99.571 120.777 98.061 116.637 98.61 109.911 C 99.552 116.945 101.872 119.633 105.115 124.097 C 109.751 130.478 113.3 135.414 120.227 138.266 Z">
	</path>
	<path style="fill: var(--color, black);"
		d="M 122.765 160.317 C 122.779 160.286 123.805 159.3 125.432 160.749 C 127.06 162.2 124.499 175.747 123.838 175.747 C 124.213 175.714 124.054 160.205 122.765 160.317 Z">
	</path>
	<path style="fill: var(--color, black);"
		d="M 157.655 18.816 C 158.425 17.149 162.571 18.032 163.453 20.735 C 163.929 22.205 163.875 23.927 163.52 25.281 C 163.089 26.917 162.856 27.394 163.327 30.333 C 161.023 27.042 164.828 20.972 157.655 18.816 Z">
	</path>
	<path style="fill: var(--color, black);"
		d="M 154.149 201.473 L 158.588 202.566 L 153.454 203.753 C 153.454 203.753 154.378 201.486 154.149 201.473 Z">
	</path>
	<path style="fill: var(--color, black);"
		d="M 95.774 203.836 L 100.214 202.743 L 95.081 201.556 C 95.081 201.556 96.004 203.822 95.774 203.836 Z"
		transform="matrix(-1, 0, 0, -1, 195.294996, 405.392003)"></path>
	<rect x="123.836" y="59.758" width="1.149" height="0.932" style="fill: var(--bg-color, white);"
		transform="matrix(0.992885, -0.119079, 0.119079, 0.992885, -31.721682, -30.369051)"></rect>
	<rect x="165.982" y="59.334" width="7.091" height="0.932" style="fill: var(--bg-color, white);"
		transform="matrix(0.998478, -0.055143, 0.055143, 0.998478, -67.748596, -36.287914)"></rect>
	<rect x="313.498" y="59.334" width="13.394" height="0.932" style="fill: var(--bg-color, white);"
		transform="matrix(0.994203, 0.10752, -0.10752, 0.994203, -156.775497, -79.05175)"></rect>
	<path style="fill: var(--color, black);"
		d="M 92.417 19.976 C 91.71 20.765 91.008 22.31 92.207 22.395 C 96.116 18.473 117.082 16.903 120.153 17.385 C 120.471 15.884 94.254 17.102 92.417 19.976 Z">
	</path>
</svg>
