<svg id="img" viewBox="0 0 256 256" xmlns="http://www.w3.org/2000/svg" xmlns:bx="https://boxy-svg.com" fill="none">
	<path style="stroke: var(--color, black); fill: #fff5dc; stroke-width: 2px;"
		d="M 92.644 19.93 C 92.751 8.699 162.889 8.049 162.479 20.274"></path>
	<path style="fill: #fff5dc;"
		d="M 91.165 20.925 C 89.854 22.046 90.502 34.42 90.3 38.984 C 90.098 43.548 86.423 56.909 86.423 56.909 L 168.868 57.249 C 168.868 57.249 165.297 44.339 164.924 39 C 164.565 33.87 164.493 21.974 164.708 21.974 C 164.619 20.623 146.547 18.691 130.799 18.729 C 116.34 18.764 92.702 19.817 91.165 20.925 Z">
	</path>
	<path
		d="M 183.245 114.137 C 183.245 144.799 158.388 169.656 127.725 169.656 C 97.063 169.656 72.205 144.799 72.205 114.137 C 72.205 99.914 77.552 77.265 86.344 57.063 C 86.879 55.833 168.7 56.121 169.296 57.5 C 177.975 77.591 183.245 100.017 183.245 114.137 Z"
		style="stroke-width: 3px; fill: var(--color-beer, #da6e18);"></path>
	<path
		d="M 190.478 114.537 C 190.478 149.365 162.245 177.599 127.416 177.599 C 92.587 177.599 64.354 149.365 64.354 114.537 C 64.354 98.384 70.427 72.657 80.414 49.71 C 91.961 23.181 62.61 18.101 127.908 18.394 C 192.015 18.68 162.422 24.015 174.634 50.207 C 185.138 72.736 190.478 98.501 190.478 114.537 Z"
		style="stroke: var(--color, black); fill: none; stroke-width: 3px;"></path>
	<path style="fill: rgb(255, 255, 255); fill-opacity: 0.85;"
		d="M 108.073 158.388 C 88.658 150.592 81.924 134.513 80.791 126.95 C 77.991 108.258 79.108 98.186 88.671 69.404 C 83.141 94.899 79.902 107.807 86.512 125.765 C 91.083 138.185 92.806 144.308 108.073 158.388 Z">
	</path>
	<path style="fill: rgb(255, 255, 255);"
		d="M 101.005 56.61 C 105.656 51.579 115.946 53.146 114.26 57.236 C 111.879 63.008 107.982 83.051 108.867 89.992 C 109.438 94.481 96.234 93.209 95.345 88.772 C 93.35 78.811 95.348 62.728 101.005 56.61 Z">
	</path>
	<ellipse style="stroke: rgb(255, 255, 255); stroke-width: 3px; fill: var(--color-beer, #da6e18); stroke-opacity: 0.6;"
		cx="126.492" cy="50.086" rx="4.641" ry="4.641"></ellipse>
	<path style="fill: rgb(255, 255, 255); fill-opacity: 0.85;"
		d="M 174.005 129.475 C 174.005 129.475 159.475 135.735 154.027 146.707 C 152.171 150.445 148.33 156.762 150.572 158.206 C 154.862 160.968 154.602 152.23 156.673 147.909 C 162.036 136.723 174.005 129.475 174.005 129.475 Z"
		transform="matrix(-1, 0, 0, -1, 323.894313, 288.210238)"></path>
	<ellipse style="stroke: rgb(255, 255, 255); stroke-width: 3px; fill: var(--color-beer, #da6e18); stroke-opacity: 0.6;"
		cx="128.166" cy="61.871" rx="4.641" ry="4.641"></ellipse>
	<ellipse style="stroke: rgb(255, 255, 255); stroke-width: 3px; fill: var(--color-beer, #da6e18); stroke-opacity: 0.6;"
		cx="137.821" cy="66.525" rx="2.626" ry="2.626"></ellipse>
	<ellipse style="stroke: rgb(255, 255, 255); stroke-width: 3px; fill: var(--color-beer, #da6e18); stroke-opacity: 0.6;"
		cx="130.379" cy="72.147" rx="2.679" ry="2.679"></ellipse>
	<ellipse style="stroke: rgb(255, 255, 255); stroke-width: 3px; fill: var(--color-beer, #da6e18); stroke-opacity: 0.6;"
		cx="137.613" cy="75.553" rx="1.773" ry="1.773"></ellipse>
	<ellipse style="stroke: rgb(255, 255, 255); stroke-width: 3px; fill: var(--color-beer, #da6e18); stroke-opacity: 0.6;"
		cx="134.657" cy="81.516" rx="1.004" ry="1.004"></ellipse>
	<ellipse style="stroke: rgb(255, 255, 255); stroke-width: 3px; fill: var(--color-beer, #da6e18); stroke-opacity: 0.6;"
		cx="136.984" cy="88.517" rx="1.004" ry="1.004"></ellipse>
	<ellipse style="stroke: rgb(255, 255, 255); stroke-width: 3px; fill: var(--color-beer, #da6e18); stroke-opacity: 0.6;"
		cx="134.574" cy="52.328" rx="3.313" ry="3.313"></ellipse>
	<ellipse style="stroke: rgb(255, 255, 255); stroke-width: 3px; fill: var(--color-beer, #da6e18); stroke-opacity: 0.6;"
		cx="119.864" cy="48.693" rx="2.156" ry="2.156"></ellipse>
	<ellipse style="stroke: rgb(255, 255, 255); stroke-width: 3px; fill: var(--color-beer, #da6e18); stroke-opacity: 0.6;"
		cx="156.303" cy="123.09" rx="4.641" ry="4.641"></ellipse>
	<ellipse style="stroke: rgb(255, 255, 255); stroke-width: 3px; fill: var(--color-beer, #da6e18); stroke-opacity: 0.6;"
		cx="152.798" cy="134.252" rx="2.679" ry="2.679"></ellipse>
	<ellipse style="stroke: rgb(255, 255, 255); stroke-width: 3px; fill: var(--color-beer, #da6e18); stroke-opacity: 0.6;"
		cx="144.313" cy="150.509" rx="1.004" ry="1.004"></ellipse>
	<path style="stroke: var(--color, black); fill: none; stroke-width: 4px; stroke-linecap: round;"
		d="M 117.768 177.513 C 123.498 202.101 119.277 229.026 96.808 231.787"></path>
	<path style="stroke: var(--color, black); fill: none; stroke-width: 4px; stroke-linecap: round;"
		d="M 154.506 231.72 C 160.238 207.132 156.016 180.207 133.548 177.447"
		transform="matrix(-1, 0, 0, -1, 290.360524, 409.167024)"></path>
	<path
		d="M 174.956 233.199 C 174.956 239.556 153.084 244.709 126.101 244.709 C 99.119 244.709 77.246 239.556 77.246 233.199 C 77.246 226.844 99.119 221.692 126.101 221.692 C 153.084 221.692 174.956 226.844 174.956 233.199 Z"
		style="fill: none; stroke-width: 4px;"></path>
	<path
		d="M 176.501 233.199 C 176.501 235.307 174.559 237.532 171.869 239.029 C 169.28 240.472 165.499 241.783 161.002 242.841 C 152.065 244.947 139.673 246.254 126.101 246.254 C 112.529 246.254 100.136 244.947 91.201 242.841 C 86.704 241.783 82.922 240.472 80.332 239.029 C 77.643 237.532 75.701 235.307 75.701 233.199 C 75.701 231.094 77.643 228.867 80.332 227.37 C 82.922 225.928 86.704 224.618 91.201 223.558 C 97.623 222.046 105.832 220.944 114.981 220.445 C 114.522 220.91 114.088 221.416 113.683 221.967 C 113.274 222.524 112.691 223.102 112.203 223.71 C 104.429 224.257 97.497 225.25 91.909 226.567 C 87.565 227.589 84.191 228.759 81.836 230.07 C 79.582 231.326 78.79 232.129 78.79 233.199 C 78.79 234.271 79.582 235.075 81.836 236.329 C 84.191 237.641 87.565 238.811 91.909 239.834 C 100.655 241.894 112.69 243.164 126.101 243.164 C 139.51 243.164 151.547 241.894 160.293 239.834 C 164.637 238.811 168.01 237.641 170.366 236.329 C 172.621 235.075 173.411 234.271 173.411 233.199 C 173.411 232.129 172.621 231.326 170.366 230.07 C 168.01 228.759 164.637 227.589 160.293 226.567 C 155.204 225.368 149.002 224.437 142.064 223.867 C 142.037 222.716 141.755 221.447 141.066 220.869 C 140.977 220.794 140.87 220.729 140.753 220.671 C 148.482 221.239 155.417 222.243 161.002 223.558 C 165.499 224.618 169.28 225.928 171.869 227.37 C 174.559 228.867 176.501 231.094 176.501 233.199 Z"
		style="fill: var(--color, black)"></path>
	<ellipse style="stroke: rgb(255, 255, 255); stroke-width: 3px; fill: var(--color-beer, #da6e18); stroke-opacity: 0.6;"
		cx="151.436" cy="144.1" rx="1.773" ry="1.773"></ellipse>
	<ellipse style="stroke: rgb(255, 255, 255); stroke-width: 3px; fill: var(--color-beer, #da6e18); stroke-opacity: 0.6;"
		cx="145.903" cy="139.677" rx="1.004" ry="1.004"></ellipse>
	<path style="stroke: var(--color, black); fill: none; stroke-width: 2px;"
		d="M 117.695 177.916 C 118.223 181.582 134.527 181.723 135.102 178.406"></path>
	<path style="stroke: var(--color, black); fill: none;"
		d="M 91.502 166.234 C 116.447 176.483 134.946 177.151 162.137 167.167"></path>
	<path style="fill: var(--color, black)"
		d="M 131.401 179.649 C 128.126 197.362 131.129 214.921 137.02 226.168 C 132.74 221.859 130.784 219.527 129.357 212.925 C 127.059 202.288 128.876 188.314 131.401 179.649 Z">
	</path>
	<path style="fill: var(--color, black)"
		d="M 124.904 218.327 C 123.586 218.022 121.286 217.584 119.996 218.194 C 119.045 218.646 118.186 219.307 118.865 220.304 C 119.442 221.15 121.246 220.807 122.07 220.645 C 122.846 220.492 123.576 220.163 124.325 219.932 C 125.686 219.513 130.088 219.244 130.574 219.334">
	</path>
	<path
		d="M 175.868 234.999 C 175.868 237.106 173.924 239.33 171.235 240.828 C 168.645 242.271 164.865 243.582 160.367 244.641 C 151.432 246.746 139.039 248.053 125.467 248.053 C 111.895 248.053 99.502 246.746 90.566 244.641 C 86.069 243.582 82.288 242.271 79.699 240.828 C 77.009 239.33 75.51 235.641 75.51 233.535 C 75.51 231.427 78.157 233.928 78.157 234.999 C 78.157 236.07 78.947 236.872 81.202 238.128 C 83.558 239.44 86.931 240.609 91.275 241.632 C 100.02 243.693 112.056 244.962 125.467 244.962 C 138.877 244.962 150.913 243.693 159.658 241.632 C 164.003 240.609 167.376 239.44 169.731 238.128 C 171.985 236.872 172.778 236.07 172.778 234.999 C 172.778 233.928 175.868 232.891 175.868 234.999 Z"
		style="fill: var(--color, black)"></path>
	<path style="fill: var(--bg-color, white)"
		d="M 82.849 238.126 L 84.931 238.884 L 84.259 241.917 L 82.085 241.135 L 82.849 238.126 Z"></path>
	<path style="fill: var(--bg-color, white)"
		d="M 86.155 239.327 L 92.057 240.927 L 91.403 243.817 L 85.665 242.273 L 86.155 239.327 Z"></path>
	<path style="fill: var(--bg-color, white)"
		d="M 155.066 241.85 C 155.713 242.816 170.734 238.704 170.242 237.967 L 169.886 240.083 C 170.156 240.555 156.187 245.145 155.833 244.527 L 155.066 241.85 Z">
	</path>
	<path style="fill: var(--color, black)"
		d="M 101.868 235.153 C 112.114 237.79 122.133 238.585 128.174 237.585 C 133.743 236.665 145 234.185 142.776 231.645 C 141.45 230.131 135.383 226.39 133.827 227.744 C 133.085 228.387 138.665 231.487 136.014 232.989 C 126.113 238.589 112.215 236.599 101.22 234.732">
	</path>
	<path style="stroke: var(--color, black); fill: none;"
		d="M 117.963 180.108 C 118.491 183.774 134.795 183.916 135.371 180.598"></path>
	<path style="fill: rgb(255, 255, 255);"
		d="M 97.707 98.239 C 99.665 96.121 110.651 94.806 108.367 98.45 C 106.118 102.035 105.154 106.183 106.219 109.451 C 107.048 111.989 99.621 111.666 99.247 109.799 C 98.408 105.602 95.324 100.817 97.707 98.239 Z"
		transform="matrix(0.993587, -0.113067, 0.113067, 0.993587, -11.068489, 12.282674)"></path>
	<ellipse style="stroke: rgb(255, 255, 255); stroke-width: 3px; fill: var(--color-beer, #da6e18); stroke-opacity: 0.6;"
		cx="135.994" cy="98.003" rx="1.004" ry="1.004"></ellipse>
	<path style="fill: rgb(255, 255, 255); fill-opacity: 0.75;"
		d="M 119.295 159.147 C 109.911 157.849 102.535 148.463 98.862 143.394 C 95.96 139.389 94.254 134.711 94.873 127.113 C 95.938 135.06 98.558 138.096 102.222 143.14 C 107.459 150.347 111.469 155.923 119.295 159.147 Z">
	</path>
	<path style="fill: var(--color, black)"
		d="M 122.162 184.057 C 122.177 184.023 123.336 182.909 125.175 184.545 C 127.014 186.184 124.121 201.489 123.374 201.489 C 123.798 201.452 123.619 183.93 122.162 184.057 Z">
	</path>
	<path style="fill: var(--color, black)"
		d="M 161.577 24.202 C 162.447 22.319 167.131 23.316 168.127 26.37 C 168.666 28.029 168.604 29.975 168.202 31.506 C 167.716 33.354 167.454 33.892 167.985 37.212 C 165.383 33.495 169.68 26.637 161.577 24.202 Z">
	</path>
	<path style="fill: var(--color, black)"
		d="M 157.617 230.552 L 162.632 231.787 L 156.832 233.128 C 156.832 233.128 157.875 230.566 157.617 230.552 Z">
	</path>
	<path style="fill: var(--color, black)"
		d="M 91.67 233.222 L 96.686 231.986 L 90.886 230.645 C 90.886 230.645 91.929 233.206 91.67 233.222 Z"
		transform="matrix(-1, 0, 0, -1, 187.572013, 463.866981)"></path>
	<rect x="139.898" y="67.51" width="1.298" height="1.052" style="fill: var(--bg-color, white)"
		transform="matrix(0.992885, -0.119079, 0.119079, 0.992885, -52.364159, -31.363438)"></rect>
	<rect x="187.513" y="67.031" width="8.011" height="1.052" style="fill: var(--bg-color, white)"
		transform="matrix(0.998478, -0.055143, 0.055143, 0.998478, -93.064285, -38.050064)"></rect>
	<rect x="354.163" y="67.031" width="15.131" height="1.052" style="fill: var(--bg-color, white)"
		transform="matrix(0.994203, 0.10752, -0.10752, 0.994203, -193.639282, -86.360992)"></rect>
	<path style="fill: var(--color, black)"
		d="M 87.876 25.512 C 87.079 26.403 86.286 28.149 87.64 28.245 C 92.056 23.814 115.742 22.04 119.211 22.585 C 119.569 20.889 89.953 22.265 87.876 25.512 Z">
	</path>
</svg>
