<?xml version="1.0" encoding="UTF-8"?><svg xmlns:svg="http://www.w3.org/2000/svg" xmlns="http://www.w3.org/2000/svg" xmlns:xlink="http://www.w3.org/1999/xlink" version="1.0" width="681" height="162" viewBox="0 0 681 162" ><text font-size="18" font-family="Palatino, Georgia, Times New Roman, serif" x="360" y="17" text-anchor="middle" dominant-baseline="middle" >Color &amp; Type Key</text><text font-size="11" font-family="Courier New, monospace" font-style="normal" dominant-baseline="middle" x="35" y="16" text-anchor="end" >00</text><text font-size="11" font-family="Courier New, monospace" font-style="normal" dominant-baseline="middle" x="35" y="46" text-anchor="end" >10</text><rect x="40" y="31" height="30" width="120" fill="#a0ffa0" /><line x1="40" y1="31" x2="160" y2="31" stroke="#000000" stroke-width="1" /><line x1="40" y1="61" x2="160" y2="61" stroke="#000000" stroke-width="1" /><line x1="160" y1="31" x2="160" y2="61" stroke="#000000" stroke-width="1" /><line x1="40" y1="31" x2="40" y2="61" stroke="#000000" stroke-width="1" /><text font-size="18" font-family="Palatino, Georgia, Times New Roman, serif" x="100" y="47" text-anchor="middle" dominant-baseline="middle" >enum</text><rect x="160" y="31" height="30" width="120" fill="#ffb0a0" /><line x1="160" y1="31" x2="280" y2="31" stroke="#000000" stroke-width="1" /><line x1="160" y1="61" x2="280" y2="61" stroke="#000000" stroke-width="1" /><line x1="280" y1="31" x2="280" y2="61" stroke="#000000" stroke-width="1" /><line x1="160" y1="31" x2="160" y2="61" stroke="#000000" stroke-width="1" /><text font-size="18" font-family="Palatino, Georgia, Times New Roman, serif" x="220" y="47" text-anchor="middle" dominant-baseline="middle" >bool</text><rect x="280" y="31" height="30" width="120" fill="#a0fafa" /><line x1="280" y1="31" x2="400" y2="31" stroke="#000000" stroke-width="1" /><line x1="280" y1="61" x2="400" y2="61" stroke="#000000" stroke-width="1" /><line x1="400" y1="31" x2="400" y2="61" stroke="#000000" stroke-width="1" /><line x1="280" y1="31" x2="280" y2="61" stroke="#000000" stroke-width="1" /><text font-size="18" font-family="Palatino, Georgia, Times New Roman, serif" x="340" y="47" text-anchor="middle" dominant-baseline="middle" >uint</text><rect x="400" y="31" height="30" width="120" fill="#ffffa0" /><line x1="400" y1="31" x2="520" y2="31" stroke="#000000" stroke-width="1" /><line x1="400" y1="61" x2="520" y2="61" stroke="#000000" stroke-width="1" /><line x1="520" y1="31" x2="520" y2="61" stroke="#000000" stroke-width="1" /><line x1="400" y1="31" x2="400" y2="61" stroke="#000000" stroke-width="1" /><text font-size="18" font-family="Palatino, Georgia, Times New Roman, serif" x="460" y="47" text-anchor="middle" dominant-baseline="middle" >fixed</text><rect x="520" y="31" height="30" width="160" fill="#e4b5f7" /><line x1="520" y1="31" x2="680" y2="31" stroke="#000000" stroke-width="1" /><line x1="520" y1="61" x2="680" y2="61" stroke="#000000" stroke-width="1" /><line x1="680" y1="31" x2="680" y2="61" stroke="#000000" stroke-width="1" /><line x1="520" y1="31" x2="520" y2="61" stroke="#000000" stroke-width="1" /><text y="47" text-anchor="middle" font-size="16" dominant-baseline="middle" x="600" font-family="sans-serif" >vlq/varint</text><line stroke-dasharray="1,3" x1="675" y1="31" x2="665" y2="61" stroke="#000000" stroke-width="1" /><line stroke-dasharray="1,3" x1="670" y1="31" x2="660" y2="61" stroke="#000000" stroke-width="1" /><text font-size="11" font-family="Courier New, monospace" font-style="normal" dominant-baseline="middle" x="35" y="76" text-anchor="end" >20</text><line x1="40" y1="61" x2="40" y2="61" stroke="#000000" stroke-width="1" /><line x1="40" y1="61" x2="40" y2="91" stroke="#000000" stroke-width="1" /><line x1="40" y1="61" x2="40" y2="91" stroke="#000000" stroke-width="1" /><line x1="680" y1="61" x2="680" y2="91" stroke="#000000" stroke-width="1" /><line x1="40" y1="61" x2="40" y2="91" stroke="#000000" stroke-width="1" /><text font-size="18" font-family="Palatino, Georgia, Times New Roman, serif" x="360" y="77" text-anchor="middle" dominant-baseline="middle" >variable length bytes</text><text font-size="11" font-family="Courier New, monospace" font-style="normal" dominant-baseline="middle" x="35" y="106" text-anchor="end" >30</text><line x1="40" y1="91" x2="40" y2="106" stroke="#000000" stroke-width="1" /><line x1="680" y1="91" x2="680" y2="106" stroke="#000000" stroke-width="1" /><line stroke-dasharray="1,1" x1="40" y1="106" x2="680" y2="136" stroke="#000000" stroke-width="1" /><line x1="680" y1="91" x2="680" y2="136" stroke="#000000" stroke-width="1" /><line stroke-dasharray="1,1" x1="40" y1="116" x2="680" y2="146" stroke="#000000" stroke-width="1" /><line x1="40" y1="116" x2="40" y2="146" stroke="#000000" stroke-width="1" /><line x1="40" y1="146" x2="40" y2="161" stroke="#000000" stroke-width="1" /><line x1="680" y1="146" x2="680" y2="161" stroke="#000000" stroke-width="1" /><text font-size="11" font-family="Palatino, Georgia, Times New Roman, serif" font-style="italic" dominant-baseline="middle" x="35" y="176" text-anchor="end" >i+<tspan font-size="11" font-family="Courier New, monospace" font-style="normal" dominant-baseline="middle" >00</tspan></text><line x1="40" y1="161" x2="680" y2="161" stroke="#000000" stroke-width="1" /></svg>