<svg id="img" viewBox="0 0 256 256" fill="none" xmlns="http://www.w3.org/2000/svg">
	<defs></defs>
	<path style="stroke: var(--color, black); fill: rgb(255, 245, 220); stroke-width: 2px;"
		d="M 91.08 14.857 C 91.187 3.103 165.684 2.377 165.274 15.17"></path>
	<path style="fill: rgb(255, 245, 220);"
		d="M 90.833 16.187 C 87.391 29.655 88.029 55.673 88.029 55.673 L 165.067 54.538 C 165.067 54.538 165.509 23.301 163.981 15.751 C 163.892 14.337 146.547 13.446 130.799 13.485 C 116.34 13.522 92.37 15.027 90.833 16.187 Z">
	</path>
	<path
		d="M 150.669 146.041 C 139.856 191.789 156.794 215.264 155.807 226.205 C 155.257 232.303 148.894 234.35 126.353 234.183 C 105.463 234.029 98.282 232.581 98.163 227.509 C 97.879 215.358 117.078 195.052 103.197 146.932 C 95.724 121.024 84.652 81.347 88.068 55.587 C 88.128 55.137 164.953 53.733 165.057 54.53 C 168.977 84.65 155.924 123.808 150.669 146.041 Z"
		style="stroke-width: 3px; fill: var(--color-beer, #da6e18);"></path>
	<ellipse style="stroke: rgb(255, 255, 255); stroke-width: 3px; fill: var(--color-beer, #da6e18); stroke-opacity: 0.6;"
		cx="134.074" cy="45.887" rx="4.641" ry="4.858"></ellipse>
	<ellipse style="stroke: rgb(255, 255, 255); stroke-width: 3px; fill: var(--color-beer, #da6e18); stroke-opacity: 0.6;"
		cx="135.748" cy="58.221" rx="4.641" ry="4.858"></ellipse>
	<ellipse style="stroke: rgb(255, 255, 255); stroke-width: 3px; fill: var(--color-beer, #da6e18); stroke-opacity: 0.6;"
		cx="145.403" cy="63.092" rx="2.626" ry="2.748"></ellipse>
	<ellipse style="stroke: rgb(255, 255, 255); stroke-width: 3px; fill: var(--color-beer, #da6e18); stroke-opacity: 0.6;"
		cx="137.961" cy="68.974" rx="2.679" ry="2.803"></ellipse>
	<ellipse style="stroke: rgb(255, 255, 255); stroke-width: 3px; fill: var(--color-beer, #da6e18); stroke-opacity: 0.6;"
		cx="145.195" cy="72.54" rx="1.773" ry="1.855"></ellipse>
	<ellipse style="stroke: rgb(255, 255, 255); stroke-width: 3px; fill: var(--color-beer, #da6e18); stroke-opacity: 0.6;"
		cx="142.239" cy="78.78" rx="1.004" ry="1.051"></ellipse>
	<ellipse style="stroke: rgb(255, 255, 255); stroke-width: 3px; fill: var(--color-beer, #da6e18); stroke-opacity: 0.6;"
		cx="144.566" cy="86.108" rx="1.004" ry="1.051"></ellipse>
	<ellipse style="stroke: rgb(255, 255, 255); stroke-width: 3px; fill: var(--color-beer, #da6e18); stroke-opacity: 0.6;"
		cx="142.156" cy="48.234" rx="3.313" ry="3.467"></ellipse>
	<ellipse style="stroke: rgb(255, 255, 255); stroke-width: 3px; fill: var(--color-beer, #da6e18); stroke-opacity: 0.6;"
		cx="127.446" cy="44.43" rx="2.156" ry="2.256"></ellipse>
	<ellipse style="stroke: rgb(255, 255, 255); stroke-width: 3px; fill: var(--color-beer, #da6e18); stroke-opacity: 0.6;"
		cx="124.047" cy="174.002" rx="4.641" ry="4.858"></ellipse>
	<ellipse style="stroke: rgb(255, 255, 255); stroke-width: 3px; fill: var(--color-beer, #da6e18); stroke-opacity: 0.6;"
		cx="126.165" cy="186.917" rx="2.679" ry="2.803"></ellipse>
	<ellipse style="stroke: rgb(255, 255, 255); stroke-width: 3px; fill: var(--color-beer, #da6e18); stroke-opacity: 0.6;"
		cx="129.99" cy="226.591" rx="1.004" ry="1.051"></ellipse>
	<ellipse style="stroke: rgb(255, 255, 255); stroke-width: 3px; fill: var(--color-beer, #da6e18); stroke-opacity: 0.6;"
		cx="137.113" cy="219.884" rx="1.773" ry="1.855"></ellipse>
	<ellipse style="stroke: rgb(255, 255, 255); stroke-width: 3px; fill: var(--color-beer, #da6e18); stroke-opacity: 0.6;"
		cx="133.044" cy="212.94" rx="1.004" ry="1.051"></ellipse>
	<ellipse style="stroke: rgb(255, 255, 255); stroke-width: 3px; fill: var(--color-beer, #da6e18); stroke-opacity: 0.6;"
		cx="143.576" cy="96.034" rx="1.004" ry="1.051"></ellipse>
	<path style="stroke: var(--color, black); stroke-width: 3px;"
		d="M 92.49 237.793 C 94.558 249.805 160.218 248.847 162.041 237.481 C 164.455 222.436 159.784 216.779 156.812 204.861 C 144.942 157.253 167.116 128.274 170.834 79.226 C 172.425 58.234 171.71 16.667 168.51 16.811 C 160.783 9.979 101 9.901 87.128 17.08 C 81.968 18.301 80.654 57.713 81.602 78.4 C 83.883 128.179 111.491 157.347 98.047 205.157 C 94.488 217.814 90.113 223.986 92.49 237.793 Z">
	</path>
	<path style="fill: var(--color, black);"
		d="M 161.577 19.214 C 162.447 17.242 167.131 18.286 168.127 21.482 C 168.666 23.218 168.604 25.255 168.202 26.857 C 167.716 28.791 167.454 29.354 167.985 32.828 C 165.383 28.938 169.68 21.762 161.577 19.214 Z">
	</path>
	<path
		d="M 97.853 13.078 C 97.853 12.702 105.867 12.702 105.869 13.078 L 105.857 14.178 C 105.825 13.952 97.809 13.952 97.843 14.178 L 97.853 13.078 Z"
		style="fill: var(--bg-color, white);"
		transform="matrix(0.993267, -0.11585, 0.11585, 0.993267, -0.876644, 11.890825)"></path>
	<rect x="140.1" y="70.549" width="1.3" height="1.1" style="fill: var(--bg-color, white);"
		transform="matrix(0.983273, -0.182136, 0.166776, 0.986119, -54.94038, -29.928162)"></rect>
	<path
		d="M 149.646 13.198 C 149.654 12.831 164.818 12.831 164.811 13.198 L 164.874 14.297 C 164.779 13.707 149.616 13.707 149.709 14.297 L 149.646 13.198 Z"
		style="fill: var(--bg-color, white);"
		transform="matrix(0.987155, 0.159763, -0.159763, 0.987155, 4.194296, -24.949515)"></path>
	<path style="fill: white;"
		d="M 97.683 16.669 C 97.683 16.669 91.316 61.845 93.125 81.837 C 95.928 112.815 112.659 147.397 112.847 178.51 C 112.981 200.718 99.671 237.706 99.671 237.706 L 107.936 240.289 C 107.936 240.289 115.656 197.18 115.857 175.1 C 116.138 144.255 103.354 107.491 101.512 76.705 C 100.283 56.166 103.256 15.497 103.256 15.497 C 103.256 15.497 98.001 16.74 97.683 16.669 Z">
	</path>
	<path style="fill: var(--color, black);"
		d="M 87.876 20.584 C 87.079 21.517 86.286 23.344 87.64 23.444 C 92.056 18.808 115.742 16.951 119.211 17.522 C 119.569 15.746 89.953 17.186 87.876 20.584 Z">
	</path>
	<path style="fill: white; fill-opacity: 0.85;"
		d="M 151.441 14.61 C 151.441 14.61 154.458 54.579 153.741 71.852 C 153.113 86.992 149.633 120.556 149.633 120.556 C 149.633 120.556 159.133 87.535 161.253 72.05 C 163.413 56.276 166.222 31.927 160.66 20.113 C 159.199 17.009 151.441 14.61 151.441 14.61 Z">
	</path>
	<path style="fill: rgb(255, 255, 255); fill-opacity: 0.85;"
		d="M 149.06 239.987 L 154.551 238.14 C 154.551 238.14 144.694 209.731 143.848 197.826 C 142.328 176.44 145.343 155.166 145.343 155.166 C 145.343 155.166 140.883 176.328 140.558 198.702 C 140.379 210.993 149.06 239.987 149.06 239.987 Z">
	</path>
	<path style="fill: var(--color-beer, #da6e18);"
		d="M 108.523 236.361 C 108.732 235.601 147.133 235.692 147.304 236.429 C 147.66 237.97 133.886 240 126.621 239.843 C 120.554 239.712 108.123 237.813 108.523 236.361 Z">
	</path>
	<path style="fill: white; fill-opacity: 0.75;"
		d="M 104.461 130.569 C 104.461 130.569 106.19 90.597 105.779 73.324 C 105.419 58.184 103.424 24.619 103.424 24.619 C 103.424 24.619 108.871 57.642 110.086 73.127 C 111.325 88.901 112.935 113.25 109.746 125.065 C 108.909 128.168 104.461 130.569 104.461 130.569 Z"
		transform="matrix(-1, 0, 0, -1, 215.032947, 155.187993)"></path>
	<ellipse style="stroke: white; stroke-width: 3px; fill: var(--color-beer, #da6e18); stroke-opacity: 0.6;" cx="128.453"
		cy="195.029" rx="1.004" ry="1.051"></ellipse>
	<path style="stroke: var(--color, black); stroke-width: 3px;"
		d="M 92.47 237.329 C 91.534 251.194 162.702 250.666 162.047 237.044"></path>
	<path style="fill: var(--bg-color, white);"
		d="M 144.204 244.874 C 148.41 244.733 155.895 242.473 159.342 240.548 L 158.986 242.254 C 156.211 244.251 149.475 246.068 144.887 246.503 L 144.204 244.874 Z">
	</path>
	<path style="fill: var(--bg-color, white);"
		d="M 105.57 245.973 C 103.248 245.803 101.364 245.115 99.127 244.239 L 99.465 242.603 C 102.128 243.615 104.366 244.249 106.253 244.344 L 105.57 245.973 Z M 95.429 242.41 L 95.073 240.703 C 95.882 241.155 96.913 241.626 98.072 242.082 L 97.742 243.675 C 96.825 243.271 96.033 242.845 95.429 242.41 Z">
	</path>
	<ellipse style="stroke: white; stroke-width: 3px; fill: var(--color-beer, #da6e18); stroke-opacity: 0.6;" cx="127.396"
		cy="163.797" rx="1.004" ry="1.051"></ellipse>
</svg>
